<svg id="Layer_1" data-name="Layer 1" xmlns="http://www.w3.org/2000/svg" xmlns:xlink="http://www.w3.org/1999/xlink" viewBox="0 0 175.96 119.49"><defs><linearGradient id="linear-gradient" x1="139.21" y1="117.3" x2="139.21" y2="19.17" gradientUnits="userSpaceOnUse"><stop offset="0" stop-color="#fff"/><stop offset="1" stop-color="#d9d9d9"/></linearGradient><linearGradient id="linear-gradient-2" x1="129.52" y1="18.82" x2="129.52" y2="100.52" xlink:href="#linear-gradient"/><linearGradient id="linear-gradient-3" x1="118.93" y1="59.67" x2="140.12" y2="59.67" gradientUnits="userSpaceOnUse"><stop offset="0" stop-color="#fff"/><stop offset="1" stop-color="#bdbdbd"/></linearGradient><linearGradient id="linear-gradient-4" x1="39.6" y1="44.24" x2="65.97" y2="44.24" xlink:href="#linear-gradient-3"/><linearGradient id="linear-gradient-5" x1="49.93" y1="11.57" x2="49.93" y2="21.87" xlink:href="#linear-gradient-3"/><linearGradient id="linear-gradient-6" x1="39.6" y1="92.07" x2="65.97" y2="92.07" xlink:href="#linear-gradient-3"/><linearGradient id="linear-gradient-7" x1="54.48" y1="57.9" x2="54.48" y2="78.41" xlink:href="#linear-gradient"/><linearGradient id="linear-gradient-8" x1="35.8" y1="43.94" x2="154.15" y2="43.94" gradientUnits="userSpaceOnUse"><stop offset="0" stop-color="#fff"/><stop offset="1" stop-color="#e6e6e6"/></linearGradient><linearGradient id="linear-gradient-9" x1="35.8" y1="92.37" x2="154.15" y2="92.37" xlink:href="#linear-gradient-8"/><linearGradient id="linear-gradient-10" x1="49.93" y1="114.75" x2="49.93" y2="125.05" xlink:href="#linear-gradient-3"/></defs><title>starship_generic</title><path d="M139.21,117.3c-23.68,0-42.94-22-42.94-49.07s19.26-49.07,42.94-49.07,42.94,22,42.94,49.07S162.89,117.3,139.21,117.3Z" transform="translate(-9.69 -8.57)" fill="url(#linear-gradient)"/><path d="M139.21,21.17c22.57,0,40.94,21.11,40.94,47.07s-18.36,47.07-40.94,47.07S98.27,94.19,98.27,68.24s18.36-47.07,40.94-47.07m0-4c-24.82,0-44.94,22.86-44.94,51.07s20.12,51.07,44.94,51.07,44.94-22.86,44.94-51.07S164,17.17,139.21,17.17h0Z" transform="translate(-9.69 -8.57)" fill="#e6e7e8"/><ellipse cx="129.52" cy="59.67" rx="44.94" ry="51.07" fill="none" stroke="#939598" stroke-miterlimit="10" stroke-width="3"/><ellipse cx="129.52" cy="59.67" rx="35.95" ry="40.85" stroke="#808285" stroke-miterlimit="10" stroke-width="2" fill="url(#linear-gradient-2)"/><rect x="118.93" y="54.05" width="21.19" height="11.23" rx="5.62" ry="5.62" stroke="#808285" stroke-miterlimit="10" stroke-width="2" fill="url(#linear-gradient-3)"/><path d="M49.53,62.92C49.13,43.7,43,31.12,39.6,25.55H59.4C60,35.79,64.37,55.89,66,62.92H49.53Z" transform="translate(-9.69 -8.57)" fill="url(#linear-gradient-4)"/><path d="M57.54,27.55c0.85,9.7,4.16,25.41,5.93,33.36h-12C50.81,45.24,46.43,34,43,27.55H57.54m3.8-4H35.8s11.75,14.3,11.75,41.36H68.48s-7.15-30.38-7.15-41.36h0Z" transform="translate(-9.69 -8.57)" fill="#d1d3d4"/><path d="M35.8,23.55s11.75,14.3,11.75,41.36H68.48s-7.15-30.38-7.15-41.36H35.8Z" transform="translate(-9.69 -8.57)" fill="none" stroke="#808285" stroke-miterlimit="10" stroke-width="2"/><path d="M17.84,21.87a5.15,5.15,0,1,1,0-10.3H82a5.15,5.15,0,1,1,0,10.3H17.84Z" transform="translate(-9.69 -8.57)" fill="url(#linear-gradient-5)"/><path d="M82,13.57a3.15,3.15,0,1,1,0,6.3H17.84a3.15,3.15,0,1,1,0-6.3H82m0-4H17.84a7.15,7.15,0,1,0,0,14.3H82a7.15,7.15,0,0,0,0-14.3h0Z" transform="translate(-9.69 -8.57)" fill="#f1f2f2"/><rect x="1" y="1" width="78.48" height="14.3" rx="7.15" ry="7.15" fill="none" stroke="#939598" stroke-miterlimit="10" stroke-width="2"/><path d="M39.6,110.75c3.42-5.57,9.53-18.15,9.93-37.36H66c-1.6,7-6,27.12-6.57,37.36H39.6Z" transform="translate(-9.69 -8.57)" fill="url(#linear-gradient-6)"/><path d="M63.47,75.39c-1.77,8-5.08,23.67-5.93,33.36H43c3.41-6.48,7.79-17.69,8.45-33.36h12m5-4H47.55c0,27.07-11.75,41.36-11.75,41.36H61.34c0-11,7.15-41.36,7.15-41.36h0Z" transform="translate(-9.69 -8.57)" fill="#d1d3d4"/><path d="M35.8,112.75s11.75-14.3,11.75-41.36H68.48s-7.15,30.38-7.15,41.36H35.8Z" transform="translate(-9.69 -8.57)" fill="none" stroke="#808285" stroke-miterlimit="10" stroke-width="2"/><path d="M64.36,57.9H44.6a8.83,8.83,0,0,0-8.8,8.8v2.92a8.83,8.83,0,0,0,8.8,8.8H64.36a8.83,8.83,0,0,0,8.8-8.8V66.7A8.83,8.83,0,0,0,64.36,57.9Z" transform="translate(-9.69 -8.57)" stroke="#808285" stroke-miterlimit="10" stroke-width="2" fill="url(#linear-gradient-7)"/><path d="M36.63,36.92l2.59-2.59a2.83,2.83,0,0,1,2-.83H73.11a4.63,4.63,0,0,1,3.27,1.36l4,4a4.63,4.63,0,0,0,3.27,1.36h57.61a4.63,4.63,0,0,1,2.36.65l8.27,4.91a4.63,4.63,0,0,1,2.27,4h0a4.63,4.63,0,0,1-4.63,4.63H77.75a4.63,4.63,0,0,1-2-.46l-6.3-3a4.63,4.63,0,0,0-2-.46H38.3a2.5,2.5,0,0,1-2.5-2.5v-9A2.83,2.83,0,0,1,36.63,36.92Z" transform="translate(-9.69 -8.57)" stroke="#808285" stroke-miterlimit="10" stroke-width="2" fill="url(#linear-gradient-8)"/><path d="M36.63,99.38L39.22,102a2.83,2.83,0,0,0,2,.83H73.11a4.63,4.63,0,0,0,3.27-1.36l4-4a4.63,4.63,0,0,1,3.27-1.36h57.61a4.63,4.63,0,0,0,2.36-.65l8.27-4.91a4.63,4.63,0,0,0,2.27-4h0a4.63,4.63,0,0,0-4.63-4.63H77.75a4.63,4.63,0,0,0-2,.46l-6.3,3a4.63,4.63,0,0,1-2,.46H38.3a2.5,2.5,0,0,0-2.5,2.5v9A2.83,2.83,0,0,0,36.63,99.38Z" transform="translate(-9.69 -8.57)" stroke="#808285" stroke-miterlimit="10" stroke-width="2" fill="url(#linear-gradient-9)"/><path d="M17.84,125.05a5.15,5.15,0,1,1,0-10.3H82a5.15,5.15,0,1,1,0,10.3H17.84Z" transform="translate(-9.69 -8.57)" fill="url(#linear-gradient-10)"/><path d="M82,116.75a3.15,3.15,0,1,1,0,6.3H17.84a3.15,3.15,0,1,1,0-6.3H82m0-4H17.84a7.15,7.15,0,1,0,0,14.3H82a7.15,7.15,0,1,0,0-14.3h0Z" transform="translate(-9.69 -8.57)" fill="#f1f2f2"/><rect x="1" y="104.19" width="78.48" height="14.3" rx="7.15" ry="7.15" fill="none" stroke="#939598" stroke-miterlimit="10" stroke-width="2"/></svg>